<?xml version="1.0" standalone="no"?>
<!DOCTYPE svg PUBLIC "-//W3C//DTD SVG 20010904//EN"
 "http://www.w3.org/TR/2001/REC-SVG-20010904/DTD/svg10.dtd">
<svg version="1.0" xmlns="http://www.w3.org/2000/svg"
 width="960.000000pt" height="1088.000000pt" viewBox="0 0 960.000000 1088.000000"
 preserveAspectRatio="xMidYMid meet">
<metadata>
Created by potrace 1.16, written by Peter Selinger 2001-2019
</metadata>
<g transform="translate(0.000000,1088.000000) scale(0.100000,-0.100000)"
fill="#000000" stroke="none">
<path d="M3328 10348 c-235 -272 -462 -628 -597 -937 -65 -146 -196 -552 -271
-838 l-22 -81 -93 -86 c-159 -147 -180 -199 -130 -326 14 -35 25 -78 25 -96 0
-18 -18 -83 -41 -146 -60 -168 -99 -290 -99 -316 0 -24 -13 -31 -87 -51 -24
-7 -84 -40 -134 -74 -220 -150 -384 -248 -586 -349 -240 -121 -296 -163 -296
-218 0 -59 58 -97 248 -163 72 -24 191 -59 265 -77 74 -17 142 -35 150 -39 13
-7 14 -32 12 -152 -4 -159 4 -208 60 -364 20 -57 32 -110 32 -145 1 -54 -1
-58 -89 -180 -130 -180 -190 -310 -255 -555 -108 -402 -121 -926 -35 -1417 33
-190 58 -233 118 -209 47 19 62 18 59 -2 -4 -21 16 -271 24 -310 9 -38 -10
-35 -84 13 -95 61 -145 112 -273 280 -65 85 -149 189 -188 230 -60 65 -72 74
-88 64 -13 -9 -18 -22 -16 -54 5 -100 68 -227 180 -359 51 -60 54 -66 37 -78
-38 -28 -209 -16 -400 29 -94 22 -120 20 -131 -7 -9 -24 60 -89 126 -119 94
-42 168 -57 351 -70 l175 -13 90 -48 c157 -84 269 -147 298 -167 15 -11 42
-48 58 -81 17 -34 47 -83 65 -110 l34 -47 -26 -10 c-14 -6 -31 -10 -38 -10 -7
0 -67 -17 -132 -38 l-119 -37 -205 0 -205 0 -120 38 c-66 21 -133 43 -149 48
-39 12 -143 12 -151 -1 -14 -23 10 -51 83 -94 42 -24 89 -50 105 -57 15 -7 27
-18 27 -24 0 -7 -43 -24 -97 -39 -190 -51 -248 -72 -251 -89 -2 -10 2 -19 10
-22 7 -3 110 23 228 58 176 52 215 67 215 81 0 13 -31 35 -100 72 -55 29 -104
55 -110 57 -5 3 -7 8 -3 12 4 4 74 -14 155 -40 133 -43 160 -48 263 -52 63 -3
119 -9 124 -13 11 -11 -79 -56 -130 -65 -21 -4 -52 -13 -69 -20 -16 -7 -65
-18 -107 -24 -88 -12 -160 -37 -338 -114 -118 -52 -150 -77 -107 -85 10 -2 82
23 160 56 210 89 227 93 442 102 105 5 226 16 270 24 92 18 108 19 103 7 -7
-19 -226 -215 -283 -254 -33 -23 -117 -65 -187 -93 -175 -72 -233 -104 -233
-129 0 -28 42 -30 173 -10 234 37 332 86 533 265 109 97 219 153 354 181 159
32 146 38 213 -99 65 -132 127 -224 196 -291 41 -41 51 -45 103 -49 49 -3 61
-1 77 17 29 32 44 26 51 -22 8 -54 52 -134 87 -160 35 -26 102 -25 154 1 48
25 149 131 187 196 26 45 29 47 46 32 9 -9 32 -19 49 -22 18 -4 32 -9 32 -13
0 -3 -20 -17 -44 -30 -25 -13 -53 -32 -62 -42 -16 -18 -16 -20 1 -39 27 -30
135 -27 261 6 119 31 154 38 154 30 0 -3 -30 -43 -67 -89 -86 -105 -112 -151
-97 -175 17 -27 52 -26 89 2 18 14 77 66 131 116 138 129 219 176 368 217 67
17 124 32 129 33 16 1 5 -45 -26 -113 -19 -40 -71 -121 -116 -181 -68 -90 -82
-114 -79 -140 4 -46 39 -45 116 1 135 82 210 171 263 311 51 136 108 172 403
255 l181 50 240 5 c220 3 249 2 330 -18 50 -11 124 -28 165 -36 166 -34 376
-86 387 -97 6 -7 33 -50 59 -97 127 -232 242 -350 340 -350 24 0 46 5 49 10
15 25 41 8 65 -42 41 -85 121 -180 181 -213 128 -69 225 -16 260 142 7 29 14
53 16 53 2 0 18 -10 34 -22 22 -16 44 -23 75 -22 73 2 126 48 237 208 13 19
15 19 73 -14 78 -43 124 -79 124 -96 0 -7 -27 -30 -60 -51 -252 -158 -321
-209 -430 -313 -76 -72 -154 -113 -219 -114 -66 -1 -397 31 -523 50 -133 21
-203 15 -330 -26 -99 -31 -122 -47 -116 -77 3 -17 16 -18 173 -15 155 3 179 1
270 -22 55 -14 121 -26 148 -26 51 0 57 -5 30 -27 -56 -44 -140 -75 -237 -89
-176 -25 -281 -67 -281 -114 0 -25 1 -25 78 -23 42 2 77 -1 77 -5 0 -4 -20
-28 -45 -52 -46 -46 -57 -76 -29 -87 23 -9 76 19 184 97 174 125 359 204 600
256 63 14 145 38 182 54 37 15 71 24 74 19 10 -17 -42 -114 -98 -179 -65 -77
-128 -167 -128 -184 0 -17 21 -36 39 -36 28 0 141 83 204 150 51 53 77 94 124
192 36 74 70 130 84 139 32 21 171 75 359 139 260 89 341 82 645 -60 39 -18
126 -57 195 -87 153 -67 248 -118 363 -195 84 -56 117 -66 117 -35 0 25 -141
120 -296 200 -152 78 -555 253 -614 267 -30 7 -61 14 -67 16 -7 2 -12 13 -10
25 5 48 -110 50 -312 5 -170 -38 -285 -96 -374 -189 -59 -60 -79 -92 -128
-196 -50 -105 -70 -134 -131 -198 -121 -125 -149 -123 -44 2 72 87 104 146
123 225 11 47 10 57 -3 70 -13 13 -18 13 -45 -3 -56 -32 -54 -18 6 43 94 95
145 125 317 184 218 76 258 97 364 197 103 96 146 116 237 106 64 -6 166 -51
226 -100 25 -19 65 -66 90 -103 60 -89 103 -115 268 -158 195 -52 255 -87 343
-201 41 -53 62 -66 75 -45 3 5 -26 49 -66 96 -62 74 -82 91 -143 120 -40 19
-114 46 -166 59 -201 53 -231 68 -270 135 -86 147 -258 248 -405 238 -82 -6
-127 -30 -209 -113 -88 -88 -144 -120 -316 -181 -145 -51 -255 -98 -265 -114
-3 -6 -11 -10 -17 -10 -24 0 75 74 256 191 148 97 199 136 237 181 52 62 56
72 37 84 -7 5 -28 -11 -54 -39 -37 -41 -43 -45 -55 -31 -23 28 -160 116 -233
149 -134 62 -409 139 -621 174 -147 25 -375 69 -545 106 -212 46 -564 127
-645 148 -67 17 -120 21 -317 24 -131 3 -238 8 -238 13 0 12 89 40 129 40 142
0 222 108 138 187 -64 60 -348 186 -370 164 -15 -15 0 -28 55 -46 87 -28 287
-135 305 -162 15 -23 15 -28 2 -52 -16 -29 -32 -35 -136 -50 -40 -6 -89 -19
-110 -30 -27 -13 -70 -21 -148 -25 -125 -8 -167 -22 -239 -85 -27 -23 -90 -62
-141 -86 -113 -54 -136 -79 -193 -218 -31 -76 -56 -118 -93 -161 -50 -56 -161
-140 -172 -130 -3 3 24 43 58 89 80 106 112 161 142 242 27 74 29 111 8 119
-22 9 -187 -24 -270 -54 -124 -44 -191 -89 -327 -221 -49 -46 -91 -82 -94 -78
-10 10 71 114 144 184 109 107 75 121 -137 56 -181 -55 -328 -57 -183 -3 143
55 264 78 658 129 45 5 101 18 125 27 47 18 51 18 151 8 61 -6 71 -4 110 19
24 15 79 58 123 98 102 90 131 105 270 134 154 32 195 54 195 109 0 39 -72
109 -156 151 -99 50 -188 47 -418 -14 -117 -31 -173 -27 -282 19 l-45 20 16
30 c8 16 17 30 20 30 2 0 41 -9 87 -20 99 -24 135 -25 208 -5 30 8 93 20 140
26 47 6 123 17 169 25 101 17 176 18 239 3 57 -14 178 -71 288 -137 101 -60
167 -82 266 -89 43 -3 82 -11 86 -17 5 -6 15 -30 22 -54 22 -71 68 -79 95 -16
8 19 18 34 24 34 6 0 19 -20 29 -44 11 -24 25 -47 31 -50 21 -13 0 -26 -43
-26 -23 0 -67 -7 -97 -16 -81 -25 -198 -22 -245 5 -25 15 -40 19 -47 12 -13
-13 8 -40 43 -53 70 -27 127 -29 226 -8 125 26 161 25 308 -5 132 -27 202 -49
375 -120 62 -26 166 -61 230 -78 116 -30 117 -31 353 -28 308 3 375 -13 548
-128 86 -58 145 -90 218 -118 64 -26 77 -27 332 -34 289 -7 341 -15 412 -66
22 -15 62 -40 89 -54 62 -33 82 -51 132 -119 23 -30 55 -68 72 -83 31 -30 168
-103 257 -138 75 -29 189 -52 202 -39 17 17 -6 30 -95 51 -83 20 -260 97 -320
140 -17 12 -55 55 -86 96 -39 53 -69 81 -104 101 -28 15 -67 40 -87 56 -95 74
-162 87 -472 95 l-265 7 -75 32 c-42 18 -118 60 -170 94 -207 134 -279 153
-551 144 -274 -9 -337 4 -669 131 -85 33 -198 70 -250 82 -52 13 -103 25 -114
28 -15 4 -17 11 -12 46 8 45 34 107 46 107 4 0 11 -16 15 -36 3 -20 17 -54 31
-75 33 -53 67 -54 92 -1 l17 37 65 -1 c85 -1 144 -28 218 -98 83 -79 152 -108
271 -114 57 -2 105 -10 118 -18 30 -19 50 -18 62 5 15 27 96 38 120 17 25 -23
55 -20 91 10 30 25 35 26 108 20 158 -14 296 -60 417 -140 98 -64 212 -116
332 -151 78 -22 112 -26 249 -28 88 -1 204 3 258 10 140 17 231 4 338 -47 111
-53 202 -71 341 -68 101 3 112 5 112 21 0 17 -12 19 -135 21 -154 3 -193 12
-306 67 -65 32 -98 42 -165 48 -74 8 -210 2 -324 -14 -22 -3 -101 -1 -175 4
-198 14 -366 72 -522 180 -90 62 -249 118 -363 128 -47 4 -79 11 -82 19 -6 15
24 73 41 80 17 7 499 -44 530 -56 15 -5 26 -17 26 -28 0 -43 154 -119 356
-177 189 -54 229 -56 350 -14 68 24 108 31 169 32 75 2 84 -1 145 -35 69 -38
216 -78 290 -78 23 0 78 10 122 22 60 16 78 25 76 37 -4 18 -45 18 -93 -2 -39
-16 -175 -15 -245 2 -30 7 -92 31 -138 54 l-83 40 -97 -6 c-69 -3 -118 -13
-169 -31 -40 -14 -94 -26 -121 -26 -67 0 -354 84 -427 125 -75 42 -102 62 -94
69 3 4 80 -12 170 -34 311 -75 469 -91 634 -66 288 43 294 45 485 134 47 21
102 45 123 53 21 7 43 19 48 26 13 15 3 33 -16 33 -16 0 -136 -49 -257 -104
-92 -42 -118 -49 -273 -77 -233 -41 -418 -28 -734 51 -86 21 -196 44 -244 51
-51 7 -91 18 -94 25 -2 6 27 72 65 145 39 74 86 178 106 232 39 105 76 293 76
388 l0 60 48 -7 c76 -10 92 19 141 246 64 305 85 804 46 1110 -36 285 -150
597 -289 791 -36 50 -68 106 -71 123 -5 32 5 84 50 246 14 52 28 129 32 170 3
41 10 80 15 86 5 7 30 15 56 19 168 25 462 111 552 162 73 41 100 72 100 112
0 45 -53 96 -178 171 -51 30 -229 145 -395 255 -166 110 -338 218 -381 240
-79 41 -80 41 -91 93 -13 54 -14 58 -144 306 -92 176 -93 180 -51 301 10 29
24 88 31 129 11 67 11 82 -4 130 -16 49 -31 67 -134 164 l-116 109 13 167 c6
92 9 179 5 194 -3 14 -22 44 -42 65 -54 61 -66 99 -59 187 10 106 21 140 61
187 37 43 123 93 161 93 12 0 39 -16 61 -36 21 -19 86 -68 143 -107 118 -82
172 -149 209 -259 27 -82 37 -208 21 -267 -16 -62 -67 -111 -113 -111 -45 0
-77 37 -108 121 -24 67 -33 76 -54 59 -34 -28 -5 -167 47 -226 62 -70 128 -82
216 -38 109 54 139 125 148 349 l6 150 -42 85 c-23 47 -58 121 -77 165 -19 44
-67 129 -108 190 -50 75 -80 133 -94 180 -31 100 -62 157 -97 177 -46 27 -168
40 -384 41 -222 2 -219 3 -392 -94 -330 -185 -393 -275 -584 -839 -83 -246
-160 -452 -208 -555 -29 -62 -41 -77 -104 -124 -135 -99 -146 -132 -92 -279
17 -46 30 -96 30 -112 0 -41 -202 -434 -247 -481 -19 -21 -50 -45 -68 -55
l-33 -17 -43 35 c-64 51 -152 99 -456 251 -150 75 -312 162 -360 195 -82 55
-89 62 -106 113 -56 166 -96 268 -150 388 l-61 134 12 76 c47 298 47 295 -58
404 l-78 82 -87 255 c-48 140 -102 298 -120 352 -91 262 -114 416 -125 836 -6
233 -12 337 -20 348 -23 26 -48 14 -102 -48z m82 -353 c14 -475 28 -541 220
-1085 32 -91 69 -199 81 -240 20 -68 30 -82 105 -162 46 -48 87 -100 90 -115
7 -25 -3 -99 -38 -293 l-11 -65 47 -95 c84 -168 175 -415 159 -431 -5 -5 -29
-3 -59 5 -59 18 -261 47 -524 77 -151 17 -255 22 -460 23 -242 0 -288 -2 -525
-32 -143 -18 -276 -35 -296 -38 -22 -4 -39 -2 -43 5 -4 6 25 102 63 212 39
111 71 210 71 222 0 11 -15 62 -32 113 l-33 93 19 36 c11 20 68 84 127 143
l107 107 50 175 c76 267 158 522 209 650 113 286 289 585 521 885 109 140 124
157 134 147 4 -4 12 -156 18 -337z m3600 -566 c60 -6 115 -17 128 -25 30 -20
59 -67 67 -112 11 -58 60 -158 115 -233 28 -39 90 -150 137 -247 95 -197 91
-179 74 -388 -9 -113 -23 -157 -65 -202 -43 -48 -123 -71 -172 -50 -28 11 -27
12 29 19 107 12 156 76 164 212 6 102 -8 182 -48 266 -50 109 -99 164 -212
240 -56 38 -113 80 -126 95 -23 25 -24 28 -13 93 8 49 8 70 0 80 -17 21 -32 0
-43 -65 l-10 -57 -52 -6 c-109 -14 -233 -144 -233 -245 0 -64 -19 -61 -145 21
-106 70 -145 84 -145 55 0 -6 62 -51 138 -101 124 -82 138 -94 143 -125 8 -44
-2 -49 -48 -26 -101 51 -324 105 -345 84 -17 -17 9 -42 44 -42 96 0 352 -99
422 -164 l39 -36 -7 -62 c-3 -34 -9 -119 -13 -188 l-6 -126 107 -99 c59 -55
116 -117 127 -137 24 -48 24 -113 -1 -203 -53 -186 -51 -175 -34 -235 8 -30
39 -98 67 -150 108 -202 138 -263 133 -275 -3 -9 -19 -7 -63 7 -112 38 -392
78 -693 99 -444 31 -1073 -31 -1147 -113 -16 -18 -15 -20 3 -39 26 -26 136
-42 224 -34 36 3 130 15 210 25 250 34 357 40 640 40 294 0 423 -8 618 -41
265 -44 297 -58 607 -263 110 -73 233 -155 274 -181 41 -27 69 -51 63 -53 -7
-2 -103 23 -214 56 -539 159 -1105 252 -1548 252 -479 0 -1016 -75 -1553 -218
l-109 -29 -8 21 c-9 23 -61 233 -64 254 -1 10 34 14 148 17 184 5 286 19 396
51 101 31 167 65 208 108 42 44 262 481 262 520 0 17 -16 76 -35 130 -25 68
-34 108 -30 127 7 31 49 72 129 125 29 19 62 52 74 73 30 52 138 332 207 531
107 313 138 395 196 518 49 102 69 134 118 182 110 108 373 262 477 280 55 9
236 4 394 -11z m-3830 -1859 c291 -18 750 -75 750 -93 0 -12 -332 -3 -585 15
-225 16 -771 16 -998 -1 -165 -12 -211 -12 -196 3 2 2 78 11 169 20 91 9 212
23 270 31 225 32 368 38 590 25z m80 -122 c96 -5 326 -11 511 -13 l335 -3 120
-78 c65 -43 193 -113 284 -156 91 -43 175 -84 188 -90 26 -13 30 -32 5 -24
-111 33 -468 87 -703 106 -74 6 -209 18 -300 27 -127 13 -269 17 -615 18 -494
0 -641 -10 -1120 -76 -183 -26 -460 -85 -537 -114 -10 -4 -18 -3 -18 3 0 6 48
36 108 68 59 32 183 109 276 172 92 63 187 122 210 132 32 14 84 19 236 25
107 4 256 11 330 15 155 8 437 3 690 -12z m343 -273 c28 -11 20 -19 -42 -38
-99 -31 -203 -100 -315 -207 l-103 -100 -73 80 c-39 44 -100 101 -135 125 -66
47 -221 125 -249 125 -9 0 -16 4 -16 9 0 6 24 12 53 14 79 7 860 -1 880 -8z
m-1393 -42 c0 -5 -19 -20 -43 -35 -66 -42 -171 -156 -205 -224 -84 -166 -91
-333 -21 -515 104 -273 350 -449 623 -449 109 0 192 21 305 77 67 33 98 44
109 37 8 -5 43 -67 79 -137 35 -70 70 -127 78 -127 20 0 43 33 114 163 35 65
65 117 68 117 2 0 19 -11 36 -24 44 -33 142 -80 202 -97 32 -9 95 -14 175 -13
142 1 204 17 317 79 98 55 230 191 277 287 110 227 77 517 -80 696 -44 50
-185 152 -211 152 -7 0 -13 5 -13 10 0 12 0 12 118 -1 53 -6 105 -15 115 -21
22 -11 125 -222 155 -318 65 -202 77 -269 76 -420 -1 -151 -11 -208 -69 -390
-13 -41 -25 -86 -27 -100 -2 -14 -9 -24 -15 -23 -6 1 -57 -7 -114 -18 -157
-30 -219 -37 -419 -49 -232 -14 -344 -31 -516 -81 -178 -51 -209 -51 -382 5
-75 25 -164 52 -197 60 -154 39 -435 68 -664 68 -172 0 -185 -1 -204 -21 -20
-19 -20 -21 -4 -39 9 -10 62 -38 118 -63 55 -24 125 -63 155 -87 109 -85 196
-226 234 -377 45 -175 46 -508 4 -792 -33 -226 -159 -647 -331 -1108 -66 -175
-103 -287 -103 -308 0 -7 -6 -21 -13 -32 -13 -17 -17 -16 -76 16 -35 18 -66
39 -69 47 -9 24 17 253 43 374 69 328 92 402 191 623 133 300 191 532 225 908
11 124 11 139 -4 154 -27 28 -47 1 -47 -66 0 -170 -65 -548 -121 -706 -36
-104 -116 -267 -183 -375 -74 -121 -208 -270 -241 -270 -15 0 39 244 86 388
23 69 20 92 -11 92 -35 0 -45 -34 -140 -472 -18 -84 -25 -101 -50 -118 -45
-32 -58 -26 -74 33 -19 66 -62 348 -76 492 -42 453 51 1030 220 1365 37 73 99
168 143 219 78 91 84 162 27 344 -22 70 -44 160 -49 200 -13 111 3 293 37 417
39 139 145 394 176 419 14 12 140 32 244 39 12 1 22 -1 22 -5z m513 -41 c163
-66 307 -181 369 -294 29 -53 58 -60 83 -21 32 49 148 164 211 209 135 97 301
152 419 139 341 -36 554 -276 530 -594 -12 -155 -73 -291 -179 -396 -191 -189
-458 -235 -691 -120 -94 47 -150 97 -235 210 -39 52 -77 95 -84 95 -8 0 -41
-38 -75 -84 -78 -107 -136 -158 -236 -206 -114 -55 -230 -77 -334 -62 -250 35
-438 198 -526 457 -22 65 -30 204 -16 280 34 183 189 354 380 417 45 14 79 17
171 14 107 -3 122 -6 213 -44z m-858 -2 c3 -5 -6 -33 -21 -61 -38 -75 -119
-295 -134 -362 -13 -56 -14 -57 -49 -57 -84 0 -510 133 -571 179 -42 31 -33
61 29 98 47 28 214 87 396 139 46 13 298 68 337 73 4 1 9 -3 13 -9z m2621 -5
c216 -37 444 -105 499 -150 40 -32 27 -43 -77 -67 -108 -24 -440 -37 -462 -19
-8 7 -25 38 -36 69 -11 32 -34 82 -50 113 -16 32 -26 60 -23 63 10 10 54 7
149 -9z m2217 -45 c146 -19 121 -33 -40 -23 -283 17 -675 3 -900 -33 -129 -20
-363 -31 -363 -16 0 6 3 13 8 15 16 10 329 59 425 67 146 12 753 5 870 -10z
m177 -30 c0 -5 -9 -10 -20 -10 -11 0 -20 5 -20 10 0 6 9 10 20 10 11 0 20 -4
20 -10z m80 -10 c0 -5 -7 -10 -15 -10 -8 0 -15 5 -15 10 0 6 7 10 15 10 8 0
15 -4 15 -10z m60 -10 c0 -5 -4 -10 -10 -10 -5 0 -10 5 -10 10 0 6 5 10 10 10
6 0 10 -4 10 -10z m98 -15 c10 -10 -3 -12 -40 -7 -21 2 -38 9 -38 14 0 11 67
5 78 -7z m-634 -284 c33 -3 61 -10 62 -16 2 -5 -13 -18 -34 -28 -80 -40 -172
-110 -242 -183 l-73 -77 -20 29 c-38 56 -171 175 -239 216 -37 22 -68 44 -68
49 0 4 17 10 38 12 62 6 513 5 576 -2z m-632 -69 c110 -54 234 -161 293 -252
25 -38 49 -70 54 -70 4 0 24 24 45 54 110 160 317 288 491 303 80 7 270 -29
351 -66 74 -34 162 -119 198 -188 128 -254 61 -547 -165 -718 -195 -145 -392
-170 -599 -74 -93 44 -134 79 -242 207 -38 45 -73 82 -79 82 -5 0 -30 -27 -56
-60 -47 -62 -66 -70 -71 -32 -4 26 -27 46 -43 36 -8 -5 -10 -27 -6 -70 6 -63
6 -64 -27 -89 -83 -63 -242 -115 -356 -115 -207 0 -394 116 -499 310 -51 96
-71 173 -71 280 0 187 85 359 214 435 74 43 252 75 398 71 79 -2 94 -6 170
-44z m-662 -30 c0 -5 -10 -17 -22 -28 -40 -36 -98 -138 -123 -217 -75 -236
-18 -461 165 -648 92 -93 159 -133 276 -163 77 -20 219 -20 301 -1 70 16 177
62 224 96 22 15 34 18 41 11 6 -6 37 -69 69 -139 31 -70 63 -129 71 -131 20
-4 26 5 98 141 34 64 66 117 72 117 5 0 37 -16 70 -36 254 -148 547 -116 760
85 152 143 198 239 206 428 4 112 2 130 -21 206 -23 72 -57 135 -123 225 -9
12 -14 25 -11 28 11 11 136 -18 151 -35 39 -43 119 -265 142 -393 9 -53 16
-144 15 -213 0 -121 -4 -143 -66 -365 -20 -71 -19 -153 2 -193 9 -18 39 -66
68 -107 96 -139 135 -224 200 -430 110 -351 124 -769 44 -1310 -28 -192 -59
-304 -85 -308 -42 -6 -63 37 -84 169 -19 124 -53 279 -65 299 -9 14 -35 13
-41 -3 -3 -8 9 -83 26 -167 17 -86 27 -157 22 -162 -18 -18 -178 181 -246 305
-137 251 -222 592 -233 930 -6 187 -12 207 -49 176 -14 -12 -16 -31 -11 -139
18 -368 45 -487 231 -1025 96 -276 154 -625 142 -845 -12 -206 -54 -401 -88
-408 -13 -3 -17 9 -23 65 -21 232 -43 326 -160 682 -105 323 -126 393 -169
566 -124 503 -129 988 -12 1299 69 182 167 284 344 356 141 57 157 73 105 107
-24 16 -52 18 -223 18 -318 0 -542 -34 -859 -130 -46 -14 -98 -25 -116 -25
-19 0 -89 16 -157 36 -182 52 -282 71 -525 99 -120 13 -256 31 -303 40 -148
28 -199 30 -206 11 -4 -11 2 -26 15 -40 25 -27 27 -82 5 -141 -83 -217 -123
-390 -145 -629 -25 -267 16 -541 126 -851 48 -136 236 -512 334 -669 45 -71
79 -132 75 -135 -16 -16 -248 263 -339 409 -51 81 -152 293 -193 405 -120 328
-161 592 -143 912 18 309 79 510 215 712 45 67 45 89 1 221 -61 180 -67 316
-23 520 32 150 114 368 150 397 23 19 98 30 98 15z m-178 -28 c4 -3 -6 -33
-22 -67 -58 -131 -106 -299 -118 -417 l-7 -75 -45 1 c-53 0 -273 52 -297 69
-15 11 -15 19 0 111 10 55 17 134 17 176 0 50 4 79 13 87 18 14 392 116 443
120 6 1 13 -2 16 -5z m2516 -50 c64 -15 316 -87 419 -120 141 -45 289 -120
311 -156 21 -35 9 -49 -77 -93 -124 -61 -420 -145 -531 -148 l-45 -2 -3 40
c-8 114 -63 318 -114 418 -29 58 -29 83 -1 73 8 -4 27 -9 41 -12z m-4312 -356
l58 -72 -44 -84 c-59 -111 -78 -142 -89 -142 -12 0 -123 209 -119 226 5 21
111 144 124 144 6 0 38 -32 70 -72z m1371 -159 c43 -12 121 -29 173 -38 l95
-16 8 -80 c8 -86 19 -131 62 -267 l28 -86 -55 -79 c-144 -204 -203 -457 -202
-858 1 -276 36 -475 129 -730 78 -215 139 -341 250 -510 120 -185 244 -323
414 -464 55 -45 98 -119 87 -147 -3 -8 -23 -22 -43 -30 -21 -9 -48 -26 -61
-37 l-23 -22 -112 29 c-62 16 -181 53 -265 82 -248 87 -253 87 -761 92 l-444
3 -42 35 c-23 18 -63 43 -88 54 -26 12 -47 28 -47 36 0 38 62 113 183 222 197
176 341 344 443 516 186 311 293 607 340 936 25 169 25 543 1 680 -33 191
-101 370 -189 498 -32 46 -32 44 -2 150 9 31 21 52 30 52 7 0 49 -10 91 -21z
m-154 -226 c128 -176 190 -429 190 -773 -1 -430 -83 -758 -289 -1150 -102
-194 -242 -379 -400 -530 -66 -63 -65 -50 4 52 48 71 182 295 182 304 0 2 25
47 55 100 143 246 227 488 282 801 24 137 24 458 0 607 -18 115 -62 297 -96
405 -12 35 -21 83 -21 108 0 43 32 123 49 123 5 0 25 -21 44 -47z m1887 -89
c0 -23 -107 -199 -120 -199 -9 0 -30 35 -53 89 -56 131 -56 132 -1 195 l48 53
63 -65 c35 -36 63 -69 63 -73z m-3804 72 c166 -22 212 -33 365 -83 223 -73
260 -74 469 -14 156 44 293 66 490 76 133 7 340 29 403 44 20 5 38 6 38 2 1
-3 1 -28 0 -56 -1 -33 14 -107 44 -215 111 -401 123 -710 44 -1090 -55 -266
-198 -573 -461 -990 -214 -340 -264 -421 -280 -449 -17 -31 -18 -31 -100 -31
-124 -1 -155 -11 -208 -67 -25 -27 -50 -57 -55 -67 -9 -16 -30 -21 -130 -28
-66 -5 -166 -7 -223 -4 -94 5 -106 8 -140 35 -20 16 -70 43 -110 59 -69 29
-76 30 -112 17 -22 -8 -74 -19 -117 -24 -60 -9 -88 -18 -121 -41 l-44 -31 -54
25 c-30 14 -93 50 -140 81 -84 54 -86 57 -80 88 7 36 56 192 79 252 84 214
238 667 290 855 75 266 95 410 104 710 5 185 3 244 -11 332 -18 112 -57 241
-96 318 -56 110 -164 218 -282 280 -32 17 -58 36 -58 42 0 17 276 3 496 -26z
m2764 -365 c80 -11 192 -25 250 -31 165 -17 336 -48 440 -80 203 -62 267 -64
423 -11 111 38 359 88 502 101 132 12 385 13 385 2 0 -5 -23 -19 -50 -31 -123
-55 -248 -181 -306 -306 -37 -79 -76 -226 -96 -360 -19 -129 -16 -497 5 -651
30 -213 88 -456 178 -739 180 -567 205 -658 221 -801 16 -140 18 -138 -95
-129 -168 13 -168 13 -198 75 -34 71 -51 84 -129 99 -36 7 -90 22 -120 33 -82
30 -116 33 -146 13 -14 -9 -47 -23 -73 -31 -27 -8 -65 -27 -86 -44 -21 -16
-41 -30 -44 -29 -3 0 -75 15 -160 32 -124 26 -156 36 -165 52 -54 101 -82 120
-197 135 -102 13 -171 32 -180 51 -52 100 -145 263 -194 339 -33 52 -78 127
-100 165 -21 39 -46 84 -55 100 -135 243 -261 544 -296 710 -48 222 -55 282
-55 435 1 247 38 471 117 689 31 86 44 139 44 176 0 54 5 66 23 60 7 -3 77
-13 157 -24z m-3404 -1558 c-36 -118 -50 -166 -75 -272 -32 -128 -61 -322 -61
-398 0 -53 -18 -63 -58 -35 -25 19 -29 31 -45 129 -9 59 -17 161 -17 226 l0
119 123 122 c67 68 126 124 130 125 5 0 6 -7 3 -16z m-819 -180 c27 -32 95
-119 150 -193 56 -74 122 -155 148 -180 26 -25 61 -65 77 -90 17 -25 49 -64
71 -87 23 -24 39 -45 36 -47 -2 -2 -63 25 -135 61 l-131 66 -139 8 c-200 12
-270 26 -382 75 -81 36 -54 45 50 16 80 -21 114 -25 238 -25 151 1 203 9 208
35 2 8 -38 64 -89 124 -58 69 -106 138 -130 188 -60 124 -51 139 28 49z m6360
-230 c21 -27 71 -80 111 -119 70 -70 72 -73 72 -120 0 -86 -20 -226 -46 -334
-24 -96 -76 -243 -94 -263 -4 -5 -6 76 -3 180 7 248 -19 435 -93 686 -10 31
14 18 53 -30z m-5761 -336 c189 -100 287 -156 408 -235 38 -24 93 -55 122 -68
l53 -23 -6 -50 c-6 -56 5 -93 49 -158 16 -24 25 -43 21 -43 -4 0 -37 10 -73
21 -79 25 -199 29 -292 10 -95 -19 -163 -62 -223 -143 -28 -37 -74 -84 -102
-105 -28 -21 -84 -68 -125 -104 -152 -137 -275 -197 -475 -233 -57 -10 -36 11
40 39 195 72 287 134 495 339 65 64 92 97 90 111 -4 26 -30 25 -220 -5 -81
-13 -151 -20 -155 -16 -4 5 -2 11 6 14 7 2 41 23 75 47 48 33 74 43 121 49 33
3 114 23 179 43 115 35 122 36 182 24 80 -16 210 -17 249 -2 83 33 86 74 11
145 -29 28 -67 71 -84 96 -16 25 -40 54 -53 66 -32 28 -129 69 -212 90 -37 9
-86 29 -110 45 -48 32 -136 119 -120 119 5 0 73 -33 149 -73z m124 -137 c98
-26 153 -65 205 -146 18 -29 52 -67 75 -85 52 -42 51 -69 -5 -85 -45 -14 -155
-18 -155 -6 0 4 14 13 30 19 21 8 30 18 30 34 0 41 -164 220 -237 258 -27 14
-31 35 -5 27 9 -3 37 -10 62 -16z m1921 -65 c131 -46 194 -160 135 -241 -14
-18 -15 -17 -27 11 -60 147 -96 205 -126 205 -25 0 -24 -27 1 -65 18 -25 26
-51 26 -79 0 -47 -28 -126 -44 -126 -7 0 -20 27 -30 61 -19 62 -79 149 -117
170 -35 18 -44 -2 -30 -63 11 -46 11 -60 -4 -106 -10 -29 -22 -51 -28 -49 -5
1 -18 26 -29 54 -10 28 -37 72 -60 97 -36 42 -39 50 -30 71 24 52 84 70 253
73 38 1 85 -5 110 -13z m-1076 -45 c3 -5 28 -19 55 -31 54 -23 116 -84 126
-124 7 -29 -7 -97 -21 -102 -6 -1 -18 15 -29 36 -28 60 -129 166 -149 158 -24
-9 -21 -41 8 -75 18 -22 25 -42 25 -73 0 -46 -26 -110 -47 -117 -7 -2 -31 35
-57 85 -82 163 -127 175 -136 35 -3 -44 -9 -84 -13 -88 -12 -13 -39 9 -71 56
-64 95 -23 188 93 210 31 6 83 17 116 24 76 17 92 18 100 6z m2134 -66 c133
-19 157 -25 313 -81 71 -25 174 -58 230 -73 97 -25 103 -29 106 -54 6 -50 -13
-59 -106 -53 -70 4 -96 11 -166 45 -46 22 -109 56 -139 75 -131 84 -263 123
-377 112 -145 -14 -309 -38 -382 -56 -42 -10 -96 -19 -120 -19 -50 1 -184 31
-197 45 -12 14 -22 61 -14 69 3 3 173 6 376 6 282 0 395 -4 476 -16z m-2883
-50 c13 -19 14 -28 5 -37 -14 -14 -26 -2 -35 36 -8 34 8 35 30 1z m1451 -6
c41 -40 44 -62 6 -54 -172 35 -241 29 -327 -29 -55 -36 -133 -68 -146 -60 -10
6 -1 45 13 63 6 8 46 32 90 53 72 37 88 41 190 48 62 5 119 9 127 10 8 0 29
-13 47 -31z m-412 12 c7 -12 -41 -44 -55 -35 -5 3 -10 15 -10 26 0 14 7 19 29
19 17 0 32 -4 36 -10z m661 -71 c10 -17 -13 -36 -27 -22 -12 12 -4 33 11 33 5
0 12 -5 16 -11z m2027 -5 c4 -4 -4 -19 -16 -34 -13 -15 -42 -64 -66 -109 -23
-45 -46 -79 -52 -76 -14 10 -11 113 6 145 20 40 62 68 116 79 3 0 9 -2 12 -5z
m182 -12 c117 -22 139 -32 161 -73 12 -25 13 -34 3 -47 -23 -31 -123 -132
-131 -132 -15 0 -20 71 -7 119 14 57 10 66 -25 57 -37 -9 -92 -71 -117 -132
-26 -61 -42 -68 -58 -23 -18 51 -13 101 14 151 14 26 25 56 25 66 0 38 1 38
135 14z m-2457 -12 c53 -12 79 -37 68 -65 -3 -10 -14 -11 -43 -4 -176 42 -256
29 -339 -58 l-53 -55 -161 -5 c-139 -5 -160 -4 -160 9 0 9 6 20 13 26 15 13
96 18 120 7 13 -5 26 0 45 17 15 14 52 33 82 43 30 10 80 33 111 51 31 18 67
38 80 44 29 12 162 7 237 -10z m-848 -45 c0 -8 -4 -15 -10 -15 -5 0 -10 7 -10
15 0 8 5 15 10 15 6 0 10 -7 10 -15z m250 -37 c0 -13 -8 -18 -31 -18 -27 0
-30 3 -23 23 3 12 11 28 17 35 9 11 13 11 24 -4 7 -10 13 -26 13 -36z m871 18
c4 -15 16 -37 25 -47 9 -11 15 -21 13 -22 -2 -2 -98 -9 -214 -16 -115 -7 -249
-15 -297 -18 -74 -5 -88 -3 -88 9 0 37 83 77 160 77 25 1 69 -6 99 -14 29 -7
77 -17 106 -20 l52 -7 39 46 c32 39 44 46 68 44 23 -2 31 -9 37 -32z m187 -3
c19 -26 29 -26 63 -2 13 10 31 6 87 -16 40 -16 72 -31 72 -35 0 -8 -341 -20
-349 -13 -3 2 5 10 17 19 12 8 29 28 37 45 19 36 47 37 73 2z m817 -12 c61
-29 145 -98 145 -120 0 -7 -16 -19 -35 -27 -33 -14 -38 -13 -61 5 -47 37 -225
73 -426 87 -54 4 -98 10 -98 13 0 6 49 18 220 57 30 7 87 13 125 13 58 1 81
-4 130 -28z m2037 -27 c36 -19 159 -54 187 -54 24 0 58 -41 70 -88 13 -45 -3
-84 -57 -141 -56 -59 -65 -49 -61 63 4 87 3 91 -18 94 -31 5 -99 -61 -134
-129 -35 -71 -46 -78 -60 -42 -24 61 -23 100 6 158 26 55 28 85 3 85 -15 0
-112 -101 -146 -152 -13 -21 -28 -38 -32 -38 -27 0 -17 142 13 178 13 17 61
37 108 46 19 3 44 13 55 21 24 18 29 18 66 -1z m-4109 -36 c43 -51 37 -61 -30
-54 -103 12 -108 17 -72 68 17 24 26 28 48 23 14 -3 38 -20 54 -37z m-374 21
c65 -10 161 -45 161 -59 0 -4 -73 -10 -162 -13 -177 -7 -262 -18 -347 -47 -31
-10 -58 -16 -60 -14 -9 9 94 104 124 114 80 26 194 34 284 19z m4006 -55 c77
-15 146 -31 153 -37 7 -5 12 -33 12 -66 0 -31 5 -73 11 -94 6 -22 8 -41 5 -44
-12 -12 -74 24 -128 74 -69 63 -141 101 -219 115 -32 5 -59 14 -59 18 0 19 53
70 69 66 9 -3 79 -17 156 -32z m-1792 -20 c66 -8 64 -23 -5 -38 -28 -6 -166
-95 -338 -217 -108 -76 -108 -77 -440 -119 -91 -11 -216 -34 -279 -51 -63 -16
-116 -27 -119 -25 -2 3 26 33 63 68 74 68 142 164 206 285 22 43 45 82 50 87
5 6 68 13 141 17 140 7 640 2 721 -7z m-937 -29 c-16 -64 -147 -255 -223 -326
-76 -72 -118 -86 -155 -52 -29 26 -23 95 23 246 22 71 20 97 -6 97 -19 0 -28
-22 -66 -167 -50 -192 -143 -344 -241 -394 -76 -39 -125 -19 -156 64 -30 82
-35 168 -17 306 17 130 15 151 -10 151 -21 0 -30 -27 -49 -149 -26 -167 -63
-224 -133 -206 -55 13 -157 144 -236 300 -61 122 -99 110 333 111 257 0 438 6
575 17 188 16 254 21 334 25 31 2 33 0 27 -23z m1128 -21 c28 -11 17 -21 -29
-27 -71 -10 -146 -51 -231 -128 -137 -122 -199 -152 -248 -116 -20 15 -24 12
170 143 106 72 139 89 212 109 98 26 104 27 126 19z m1945 -138 c6 -22 8 -43
5 -48 -7 -10 -94 -11 -94 0 0 19 62 104 70 96 4 -5 13 -27 19 -48z m209 -1
c-4 -34 -32 -55 -49 -38 -9 9 -6 20 11 48 25 40 44 35 38 -10z m-2028 -33 c0
-4 -44 -17 -97 -29 -54 -12 -108 -25 -120 -29 -13 -3 -23 -2 -23 4 0 16 48 43
93 52 55 10 147 12 147 2z m1374 -237 c60 -14 117 -25 126 -25 30 0 40 -23 67
-159 26 -127 26 -131 8 -151 -25 -28 -53 -25 -107 9 -64 41 -139 138 -225 292
-33 59 -33 74 2 65 11 -4 69 -17 129 -31z m486 -92 c80 -14 152 -29 161 -34
21 -11 44 -231 34 -319 -9 -77 -50 -160 -89 -179 -73 -34 -200 66 -270 213
-36 77 -108 332 -98 350 6 10 79 2 262 -31z m395 -99 c131 -39 155 -49 155
-65 0 -19 -80 -127 -116 -157 -101 -83 -155 -38 -189 156 -17 97 -14 116 13
108 10 -3 71 -22 137 -42z m795 -433 c0 -4 -28 -11 -62 -14 -62 -6 -193 -45
-358 -107 -47 -18 -96 -34 -110 -37 l-25 -4 25 21 c55 49 182 98 335 130 95
20 195 26 195 11z m-1655 -251 c22 -5 90 -13 152 -19 116 -11 188 -36 241 -84
32 -29 27 -44 -15 -52 -20 -4 -65 -18 -100 -32 -35 -14 -66 -23 -70 -20 -3 3
20 22 50 41 70 45 76 55 47 78 -18 14 -40 18 -109 18 -54 0 -114 8 -161 20
-41 11 -114 23 -162 27 -85 6 -112 17 -65 26 41 8 152 7 192 -3z m699 -34
c-44 -39 -103 -65 -166 -72 -51 -6 -61 -4 -102 22 -25 16 -46 32 -46 36 0 4
48 4 108 1 98 -4 112 -3 167 20 33 14 62 24 64 22 2 -2 -10 -15 -25 -29z
m-644 -244 c0 -4 -31 -29 -70 -55 -62 -42 -90 -51 -59 -20 19 19 2 43 -31 43
-57 0 -30 18 38 25 59 5 88 9 115 14 4 0 7 -3 7 -7z"/>
<path d="M2390 6825 c-117 -22 -155 -37 -155 -60 0 -15 8 -21 34 -23 30 -3 33
-6 27 -30 -32 -132 -30 -169 15 -249 31 -55 78 -101 132 -130 23 -13 55 -18
117 -18 76 0 93 4 151 32 38 19 73 30 85 27 32 -8 47 20 52 100 11 169 -58
282 -208 340 -60 24 -160 28 -250 11z m80 -58 c0 -1 -9 -20 -20 -42 -57 -111
14 -235 135 -235 68 0 122 32 149 87 12 23 26 42 32 43 13 0 34 -73 34 -117 0
-43 -24 -68 -98 -104 -57 -28 -78 -33 -138 -33 -62 0 -78 4 -120 30 -66 41
-107 107 -112 185 -6 78 18 143 62 170 26 16 76 26 76 16z m187 -32 c31 -21
53 -72 46 -108 -6 -31 -52 -74 -89 -83 -55 -14 -119 27 -130 81 -8 43 20 104
56 123 30 15 82 9 117 -13z"/>
<path d="M3675 6821 c-94 -24 -164 -81 -204 -164 -36 -75 -46 -154 -29 -222
11 -43 17 -50 43 -55 17 -4 48 -18 71 -32 117 -74 276 -55 371 44 72 75 103
201 69 283 -17 40 -13 45 30 45 38 0 53 16 33 35 -20 19 -211 66 -289 70 -36
2 -78 1 -95 -4z m195 -69 c19 -10 45 -34 58 -57 19 -34 22 -51 20 -117 -3 -66
-7 -82 -33 -119 -17 -23 -53 -55 -82 -71 -44 -25 -65 -30 -122 -30 -59 -1 -78
4 -123 29 -76 43 -101 83 -95 154 5 55 29 119 46 119 5 0 12 -20 16 -45 13
-87 112 -151 196 -126 46 14 106 79 114 125 8 41 -8 97 -35 121 -40 36 -18 45
40 17z m-117 -13 c62 -32 77 -114 31 -168 -22 -26 -33 -31 -71 -31 -38 0 -50
5 -79 34 -38 38 -44 77 -18 127 23 45 88 63 137 38z"/>
<path d="M5490 6404 c-44 -9 -155 -45 -168 -56 -21 -18 6 -40 40 -33 33 8 33
9 12 -62 -32 -111 9 -226 107 -298 81 -60 148 -74 236 -50 35 10 79 28 98 41
19 12 49 24 67 26 32 3 33 4 41 63 21 147 -47 270 -187 342 -41 22 -67 27
-136 29 -47 1 -96 0 -110 -2z m50 -67 c0 -1 -9 -20 -20 -42 -54 -105 18 -225
134 -225 81 0 127 35 146 113 7 26 16 47 21 47 17 0 49 -80 49 -123 0 -40 -5
-49 -43 -84 -108 -99 -258 -96 -354 8 -58 63 -71 181 -28 255 14 23 33 45 42
47 22 6 53 8 53 4z m170 -22 c41 -21 57 -78 37 -127 -42 -100 -187 -76 -187
30 0 39 23 87 47 101 26 15 70 13 103 -4z"/>
<path d="M6645 6361 c-71 -33 -149 -114 -165 -169 -13 -48 -13 -198 1 -223 6
-12 18 -19 32 -17 12 2 52 -12 89 -31 95 -47 169 -48 262 -2 80 39 127 92 151
169 18 55 16 98 -6 192 -3 12 6 15 40 15 51 0 63 17 28 39 -36 24 -202 56
-292 56 -67 0 -90 -5 -140 -29z m277 -58 c37 -36 51 -83 46 -159 -3 -50 -10
-72 -34 -106 -65 -93 -201 -121 -315 -66 -82 41 -94 58 -92 133 2 90 32 139
48 78 18 -75 91 -128 163 -120 53 6 89 31 120 83 28 47 25 111 -6 154 -12 15
-18 31 -14 34 11 12 56 -5 84 -31z m-132 -12 c38 -37 45 -70 26 -115 -44 -105
-196 -64 -196 52 0 83 110 124 170 63z"/>
<path d="M3482 4821 c2 -90 6 -113 22 -130 21 -23 56 -27 87 -10 49 26 135
217 109 242 -9 9 -15 7 -26 -7 -8 -11 -14 -27 -14 -35 0 -30 -47 -116 -79
-146 -32 -29 -33 -29 -47 -11 -8 12 -14 44 -14 82 0 82 -9 124 -27 124 -12 0
-14 -18 -11 -109z"/>
<path d="M4107 4883 c-4 -3 -7 -16 -7 -29 0 -35 -38 -150 -59 -175 -28 -35
-46 -13 -66 79 -22 98 -32 125 -46 116 -24 -15 13 -197 49 -236 23 -27 67 -23
91 8 47 60 92 244 59 244 -8 0 -18 -3 -21 -7z"/>
<path d="M2694 4865 c-12 -29 6 -178 24 -210 25 -42 65 -45 103 -9 35 34 91
147 93 188 2 50 -25 38 -44 -20 -24 -69 -44 -105 -74 -133 -41 -38 -55 -16
-64 99 -4 60 -11 95 -19 98 -7 2 -16 -4 -19 -13z"/>
<path d="M2944 4615 c-10 -26 5 -174 21 -205 42 -82 139 -15 197 135 15 40 18
59 10 67 -16 16 -27 4 -53 -63 -13 -34 -41 -80 -61 -103 -34 -38 -38 -40 -53
-25 -12 12 -19 42 -23 109 -5 61 -11 95 -19 98 -7 2 -16 -4 -19 -13z"/>
<path d="M3836 4292 c-11 -19 8 -173 25 -202 39 -63 103 -27 156 88 33 70 39
112 18 114 -11 1 -15 -7 -51 -89 -52 -122 -95 -124 -105 -4 -4 39 -10 78 -13
86 -6 16 -22 20 -30 7z"/>
<path d="M3204 4145 c-12 -29 4 -186 21 -211 21 -32 65 -31 103 1 34 28 118
187 108 204 -14 22 -28 9 -57 -54 -31 -68 -82 -135 -104 -135 -23 0 -29 21
-35 114 -3 59 -9 91 -17 94 -7 2 -16 -4 -19 -13z"/>
<path d="M2630 4018 c0 -116 18 -161 67 -166 42 -4 91 45 132 132 31 65 38
100 22 110 -13 8 -27 -12 -50 -74 -23 -61 -74 -130 -97 -130 -22 0 -36 47 -37
135 -2 67 -5 80 -19 83 -16 3 -18 -6 -18 -90z"/>
<path d="M3654 3865 c-4 -9 -4 -53 -1 -98 5 -73 8 -84 32 -105 34 -29 59 -23
102 25 34 37 87 158 77 174 -12 20 -29 1 -69 -76 -66 -129 -97 -127 -105 7 -3
52 -9 83 -17 86 -7 2 -16 -4 -19 -13z"/>
<path d="M2944 3655 c-12 -29 3 -174 20 -200 19 -29 60 -33 94 -10 48 35 121
168 108 201 -9 24 -31 3 -59 -59 -28 -60 -73 -117 -93 -117 -23 0 -34 35 -34
108 0 49 -4 73 -15 82 -12 10 -16 9 -21 -5z"/>
<path d="M3502 3418 c-15 -15 -16 -152 -2 -179 7 -13 21 -19 44 -19 27 0 42 9
80 49 47 51 85 116 73 127 -13 13 -36 -6 -71 -59 -44 -66 -61 -81 -81 -73 -12
4 -15 23 -15 80 0 76 -7 95 -28 74z"/>
<path d="M5126 4771 c-7 -11 8 -93 27 -146 27 -75 41 -96 70 -112 27 -14 32
-13 56 5 21 15 30 38 50 121 17 72 21 105 13 113 -18 18 -29 0 -42 -69 -16
-86 -35 -133 -54 -133 -22 0 -55 66 -71 142 -9 39 -18 74 -21 79 -7 12 -21 12
-28 0z"/>
<path d="M5665 4750 c-18 -30 38 -175 88 -227 35 -38 75 -43 101 -14 34 38 48
236 16 236 -12 0 -17 -20 -22 -94 -8 -102 -24 -135 -55 -115 -25 15 -70 102
-86 164 -14 54 -29 71 -42 50z"/>
<path d="M6562 4508 c-7 -7 -12 -31 -12 -55 0 -52 -18 -141 -31 -149 -24 -15
-52 12 -85 79 -19 39 -34 79 -34 88 0 9 -7 22 -15 29 -44 37 -15 -98 39 -179
37 -55 76 -77 107 -61 30 17 47 65 55 162 7 85 0 110 -24 86z"/>
<path d="M5985 4291 c-16 -26 51 -175 99 -220 35 -33 86 -26 105 14 16 33 27
174 17 202 -14 34 -36 -15 -37 -81 -1 -83 -10 -110 -37 -114 -16 -3 -29 8 -52
44 -16 26 -37 68 -46 93 -20 55 -38 78 -49 62z"/>
<path d="M5140 4156 c0 -38 56 -166 86 -197 18 -19 38 -29 56 -29 25 0 32 7
48 44 26 57 32 191 10 191 -11 0 -17 -15 -21 -55 -13 -125 -22 -146 -54 -134
-19 8 -68 101 -84 162 -13 46 -41 59 -41 18z"/>
<path d="M5615 3990 c-15 -24 49 -166 98 -217 35 -38 68 -42 96 -14 20 20 26
42 35 143 6 61 1 88 -19 88 -8 0 -14 -29 -19 -92 -7 -102 -20 -128 -54 -109
-27 14 -58 66 -85 142 -22 61 -39 81 -52 59z"/>
<path d="M6425 3890 c-20 -33 43 -180 96 -224 43 -37 88 -33 109 9 15 31 27
183 16 211 -5 13 -9 14 -21 4 -11 -9 -15 -34 -15 -92 0 -117 -22 -144 -72 -90
-28 30 -59 87 -77 144 -14 41 -26 54 -36 38z"/>
<path d="M5337 3593 c-23 -22 33 -154 82 -196 66 -55 99 -27 113 98 7 59 7 90
0 97 -20 20 -29 -2 -35 -83 -11 -133 -37 -133 -102 -2 -44 90 -49 96 -58 86z"/>
<path d="M5954 3517 c-9 -26 44 -142 89 -193 47 -53 86 -60 114 -18 20 32 32
189 15 206 -17 17 -32 -32 -32 -101 0 -70 -17 -99 -48 -82 -28 15 -57 57 -82
122 -26 67 -46 90 -56 66z"/>
<path d="M5765 3158 c-3 -7 -4 -44 -2 -83 2 -65 0 -70 -20 -73 -17 -3 -32 13
-74 77 -52 81 -62 90 -74 71 -18 -29 112 -200 152 -200 42 0 54 30 51 125 -2
60 -7 90 -15 93 -7 2 -15 -2 -18 -10z"/>
<path d="M6514 3075 c-8 -20 46 -133 83 -172 22 -23 40 -33 62 -33 42 0 59 37
63 136 2 65 0 79 -12 79 -11 0 -17 -18 -21 -73 -4 -40 -10 -79 -13 -87 -15
-41 -65 7 -111 108 -27 58 -41 69 -51 42z"/>
</g>
</svg>
